<?xml version="1.0" encoding="UTF-8" standalone="no"?>
<!-- Created with Inkscape (http://www.inkscape.org/) -->

<svg
   xmlns:dc="http://purl.org/dc/elements/1.1/"
   xmlns:cc="http://creativecommons.org/ns#"
   xmlns:rdf="http://www.w3.org/1999/02/22-rdf-syntax-ns#"
   xmlns:svg="http://www.w3.org/2000/svg"
   xmlns="http://www.w3.org/2000/svg"
   xmlns:sodipodi="http://sodipodi.sourceforge.net/DTD/sodipodi-0.dtd"
   xmlns:inkscape="http://www.inkscape.org/namespaces/inkscape"
   id="svg2"
   version="1.1"
   inkscape:version="0.48.5 r10040"
   width="270"
   height="270"
   xml:space="preserve"
   sodipodi:docname="New document 1"><metadata
     id="metadata8"><rdf:RDF><cc:Work
         rdf:about=""><dc:format>image/svg+xml</dc:format><dc:type
           rdf:resource="http://purl.org/dc/dcmitype/StillImage" /><dc:title></dc:title></cc:Work></rdf:RDF></metadata><defs
     id="defs6"><clipPath
       clipPathUnits="userSpaceOnUse"
       id="clipPath16"><path
         d="M 0,216 216,216 216,0 0,0 0,216 z"
         id="path18" /></clipPath></defs><sodipodi:namedview
     pagecolor="#ffffff"
     bordercolor="#666666"
     borderopacity="1"
     objecttolerance="10"
     gridtolerance="10"
     guidetolerance="10"
     inkscape:pageopacity="0"
     inkscape:pageshadow="2"
     inkscape:window-width="640"
     inkscape:window-height="480"
     id="namedview4"
     showgrid="false"
     inkscape:zoom="0.87407407"
     inkscape:cx="135"
     inkscape:cy="135"
     inkscape:window-x="0"
     inkscape:window-y="0"
     inkscape:window-maximized="0"
     inkscape:current-layer="g10" /><g
     id="g10"
     inkscape:groupmode="layer"
     inkscape:label="NB.sticker.colour.print.ready"
     transform="matrix(1.25,0,0,-1.25,0,270)"><g
       id="g12"><g
         id="g14"
         clip-path="url(#clipPath16)"><g
           id="g20"
           transform="translate(214.3369,108.2192)"><path
             d="m 0,0 c 0,-58.644 -47.598,-106.24 -106.241,-106.24 -58.646,0 -106.241,47.596 -106.241,106.24 0,58.645 47.595,106.242 106.241,106.242 C -47.598,106.242 0,58.645 0,0"
             style="fill:#ed1c24;fill-opacity:1;fill-rule:nonzero;stroke:none"
             id="path22" /></g><g
           id="g24"
           transform="translate(93.8262,201.8506)"><path
             d="M 0,0 0.997,-5.515 1.234,-6.747 1.367,-7.361 1.5,-7.975 1.437,-7.986 0.93,-7.266 0.424,-6.554 c -0.4,0.561 -0.75,1.036 -1.048,1.427 l -3.369,4.405 -3.08,-0.557 1.732,-9.578 1.817,0.329 -0.993,5.494 -0.241,1.253 -0.135,0.621 -0.142,0.627 0.071,0.012 0.426,-0.633 0.432,-0.632 c 0.409,-0.602 0.705,-1.022 0.888,-1.259 L 0.469,-9.806 3.549,-9.249 1.816,0.329 0,0 z"
             style="fill:#231f20;fill-opacity:1;fill-rule:nonzero;stroke:none"
             id="path26" /></g><g
           id="g28"
           transform="translate(98.6743,198.9653)"><path
             d="m 0,0 c -0.372,-0.457 -0.501,-1.399 -0.395,-2.826 0.114,-1.484 0.391,-2.428 0.835,-2.833 0.443,-0.405 1.358,-0.554 2.747,-0.449 1.281,0.097 2.101,0.396 2.464,0.895 0.362,0.5 0.486,1.503 0.373,3.009 C 5.92,-0.852 5.649,0.018 5.21,0.406 4.771,0.794 3.895,0.939 2.582,0.839 1.231,0.737 0.371,0.458 0,0 M 3.973,-0.714 C 4.175,-0.942 4.311,-1.49 4.376,-2.357 4.454,-3.385 4.414,-4.042 4.257,-4.325 4.1,-4.609 3.682,-4.776 3.005,-4.828 2.303,-4.881 1.855,-4.786 1.661,-4.543 1.466,-4.301 1.33,-3.668 1.252,-2.644 c -0.068,0.896 -0.019,1.473 0.146,1.731 0.167,0.259 0.589,0.413 1.268,0.465 0.667,0.051 1.104,-0.038 1.307,-0.266"
             style="fill:#231f20;fill-opacity:1;fill-rule:nonzero;stroke:none"
             id="path30" /></g><g
           id="g32"
           transform="translate(106.0376,202.8853)"><path
             d="M 0,0 0.021,-1.362 1.653,-1.337 1.633,0.024 0,0 z m 0.044,-2.917 0.101,-6.815 1.633,0.024 -0.102,6.816 -1.632,-0.025 z"
             style="fill:#231f20;fill-opacity:1;fill-rule:nonzero;stroke:none"
             id="path34" /></g><g
           id="g36"
           transform="translate(114.6699,199.4849)"><path
             d="m 0,0 c -0.381,0.283 -1.139,0.451 -2.271,0.5 -1.204,0.054 -2.022,-0.047 -2.458,-0.304 -0.433,-0.257 -0.669,-0.774 -0.703,-1.553 -0.039,-0.87 0.168,-1.452 0.618,-1.748 0.451,-0.296 1.406,-0.476 2.863,-0.541 0.646,-0.029 0.957,-0.331 0.931,-0.905 -0.027,-0.599 -0.556,-0.874 -1.585,-0.829 -0.999,0.045 -1.45,0.366 -1.356,0.966 0.006,0.058 0.023,0.133 0.053,0.227 l -1.696,0.076 -0.007,-0.172 c -0.035,-0.793 0.154,-1.343 0.568,-1.652 0.414,-0.31 1.203,-0.489 2.367,-0.541 1.211,-0.054 2.057,0.069 2.539,0.369 0.483,0.3 0.742,0.865 0.78,1.696 0.033,0.779 -0.12,1.302 -0.459,1.569 -0.34,0.267 -1.092,0.456 -2.252,0.564 -0.864,0.081 -1.368,0.161 -1.514,0.239 -0.147,0.078 -0.211,0.304 -0.193,0.68 0.023,0.551 0.461,0.807 1.31,0.77 0.594,-0.028 0.967,-0.084 1.117,-0.172 0.151,-0.087 0.235,-0.296 0.254,-0.625 l 0.016,-0.129 1.596,-0.071 C 0.553,-0.812 0.379,-0.283 0,0"
             style="fill:#231f20;fill-opacity:1;fill-rule:nonzero;stroke:none"
             id="path38" /></g><g
           id="g40"
           transform="translate(120.5625,193.6499)"><path
             d="M 0,0 C -0.197,-0.107 -0.592,-0.122 -1.186,-0.045 -1.799,0.033 -2.193,0.196 -2.371,0.444 -2.547,0.691 -2.594,1.148 -2.508,1.813 -2.5,1.86 -2.484,1.958 -2.455,2.108 L 2.121,1.522 2.184,2.017 C 2.35,3.308 2.256,4.202 1.902,4.695 1.549,5.188 0.77,5.512 -0.439,5.667 -1.697,5.828 -2.572,5.71 -3.064,5.313 -3.557,4.916 -3.887,4.06 -4.055,2.744 c -0.189,-1.48 -0.107,-2.475 0.248,-2.986 0.358,-0.51 1.207,-0.852 2.551,-1.024 1.981,-0.254 3.055,0.28 3.225,1.599 L 2.002,0.595 0.375,0.804 C 0.32,0.375 0.195,0.106 0,0 m -2.314,3.096 c 0.084,0.651 0.228,1.062 0.433,1.232 0.209,0.17 0.613,0.216 1.217,0.138 C -0.041,4.386 0.352,4.255 0.518,4.07 0.684,3.887 0.732,3.525 0.662,2.988 L 0.635,2.718 -2.314,3.096 z"
             style="fill:#231f20;fill-opacity:1;fill-rule:nonzero;stroke:none"
             id="path42" /></g><g
           id="g44"
           transform="translate(125.0195,191.5352)"><path
             d="M 0,0 0.16,1.067 0.193,1.06 c 0.162,-0.824 0.762,-1.348 1.797,-1.573 1.024,-0.221 1.766,-0.128 2.231,0.28 0.467,0.407 0.847,1.3 1.146,2.68 C 5.643,3.71 5.652,4.615 5.398,5.158 5.145,5.703 4.537,6.078 3.582,6.286 2.467,6.527 1.697,6.327 1.27,5.685 L 1.238,5.707 2.063,9.512 0.467,9.857 -1.596,0.346 0,0 z M 3.838,4.494 C 3.961,4.19 3.926,3.601 3.736,2.728 3.533,1.79 3.313,1.209 3.074,0.985 2.836,0.762 2.393,0.721 1.74,0.862 1.119,0.998 0.75,1.227 0.637,1.551 0.52,1.875 0.572,2.541 0.793,3.549 1.072,4.836 1.729,5.367 2.764,5.142 3.359,5.014 3.717,4.797 3.838,4.494"
             style="fill:#231f20;fill-opacity:1;fill-rule:nonzero;stroke:none"
             id="path46" /></g><g
           id="g48"
           transform="translate(130.8008,190.189)"><path
             d="M 0,0 1.564,-0.472 2.723,3.372 C 3.033,4.405 3.576,4.805 4.35,4.572 4.891,4.409 5.059,3.979 4.848,3.283 4.83,3.228 4.787,3.114 4.715,2.942 L 6.189,2.498 6.328,2.955 C 6.764,4.402 6.408,5.299 5.262,5.645 4.461,5.886 3.771,5.722 3.191,5.152 L 3.158,5.169 3.531,6.055 1.967,6.526 0,0 z"
             style="fill:#231f20;fill-opacity:1;fill-rule:nonzero;stroke:none"
             id="path50" /></g><g
           id="g52"
           transform="translate(139.8242,197.5366)"><path
             d="M 0,0 -0.465,-1.28 1.072,-1.835 1.535,-0.554 0,0 z m -0.992,-2.743 -2.317,-6.411 1.536,-0.554 2.316,6.411 -1.535,0.554 z"
             style="fill:#231f20;fill-opacity:1;fill-rule:nonzero;stroke:none"
             id="path54" /></g><g
           id="g56"
           transform="translate(147.3438,194.5332)"><path
             d="m 0,0 -1.545,-3.566 -0.029,0.004 c 0.025,0.756 -0.471,1.354 -1.492,1.796 -0.881,0.383 -1.588,0.431 -2.12,0.146 -0.533,-0.285 -1.041,-0.985 -1.525,-2.102 -0.598,-1.383 -0.836,-2.37 -0.711,-2.96 0.127,-0.59 0.684,-1.099 1.674,-1.529 0.98,-0.425 1.775,-0.336 2.383,0.266 L -3.342,-7.963 -3.83,-8.949 -2.371,-9.581 1.498,-0.649 0,0 z M -2.082,-4.025 C -2,-4.345 -2.125,-4.889 -2.459,-5.657 -2.861,-6.586 -3.203,-7.143 -3.48,-7.328 c -0.28,-0.184 -0.721,-0.146 -1.323,0.115 -0.576,0.249 -0.89,0.541 -0.943,0.874 -0.053,0.333 0.117,0.954 0.512,1.861 0.339,0.785 0.644,1.261 0.914,1.427 0.267,0.166 0.679,0.128 1.24,-0.114 0.582,-0.253 0.916,-0.54 0.998,-0.86"
             style="fill:#231f20;fill-opacity:1;fill-rule:nonzero;stroke:none"
             id="path58" /></g><g
           id="g60"
           transform="translate(153.4102,188.2056)"><path
             d="m 0,0 -0.469,-1.028 -0.029,0.017 c 0.084,0.867 -0.35,1.558 -1.303,2.075 -0.873,0.474 -1.592,0.584 -2.158,0.334 -0.566,-0.25 -1.154,-0.94 -1.766,-2.068 -0.648,-1.2 -0.925,-2.11 -0.832,-2.728 0.094,-0.619 0.596,-1.174 1.502,-1.665 0.916,-0.496 1.674,-0.494 2.276,0.008 l 0.027,-0.023 -0.73,-1.349 c -0.399,-0.735 -1.043,-0.862 -1.934,-0.38 -0.506,0.275 -0.801,0.506 -0.887,0.697 -0.086,0.19 -0.023,0.479 0.186,0.867 l -1.391,0.755 c -0.441,-0.815 -0.564,-1.455 -0.367,-1.919 0.197,-0.463 0.811,-0.974 1.84,-1.531 1.06,-0.575 1.889,-0.788 2.48,-0.638 0.592,0.15 1.153,0.714 1.682,1.692 L 1.436,-0.778 0,0 z m -1.041,-1.261 c 0.043,-0.321 -0.15,-0.876 -0.578,-1.666 -0.445,-0.823 -0.817,-1.31 -1.115,-1.46 -0.297,-0.15 -0.727,-0.071 -1.293,0.234 -0.563,0.306 -0.862,0.618 -0.891,0.937 -0.029,0.319 0.184,0.901 0.643,1.745 0.429,0.794 0.783,1.261 1.06,1.399 0.277,0.139 0.694,0.059 1.246,-0.24 0.576,-0.312 0.885,-0.629 0.928,-0.949"
             style="fill:#231f20;fill-opacity:1;fill-rule:nonzero;stroke:none"
             id="path62" /></g><g
           id="g64"
           transform="translate(156.9941,179.5493)"><path
             d="m 0,0 c -0.223,-0.01 -0.584,0.149 -1.086,0.479 -0.516,0.34 -0.799,0.659 -0.848,0.959 -0.05,0.301 0.11,0.731 0.477,1.291 0.025,0.04 0.086,0.12 0.176,0.242 L 2.574,0.436 2.848,0.853 C 3.564,1.941 3.871,2.785 3.77,3.383 3.668,3.982 3.109,4.616 2.094,5.284 1.033,5.981 0.195,6.26 -0.422,6.119 -1.037,5.979 -1.711,5.354 -2.439,4.246 -3.26,2.999 -3.621,2.067 -3.525,1.453 c 0.095,-0.616 0.711,-1.296 1.841,-2.04 1.668,-1.097 2.868,-1.09 3.6,0.022 l 0.145,0.221 -1.37,0.901 C 0.453,0.195 0.223,0.01 0,0 m -0.719,3.797 c 0.36,0.548 0.67,0.854 0.93,0.916 C 0.471,4.775 0.855,4.639 1.363,4.304 1.887,3.959 2.184,3.668 2.252,3.43 2.32,3.191 2.205,2.846 1.908,2.393 L 1.764,2.164 -0.719,3.797 z"
             style="fill:#231f20;fill-opacity:1;fill-rule:nonzero;stroke:none"
             id="path66" /></g><g
           id="g68"
           transform="translate(172.8867,177.6733)"><path
             d="m 0,0 -2.619,-2.986 -3.432,3.008 2.619,2.986 -1.388,1.219 -6.418,-7.318 1.388,-1.218 2.774,3.163 3.431,-3.009 -2.773,-3.163 1.389,-1.218 6.418,7.318 L 0,0 z"
             style="fill:#231f20;fill-opacity:1;fill-rule:nonzero;stroke:none"
             id="path70" /></g><g
           id="g72"
           transform="translate(175.0996,169.8955)"><path
             d="m 0,0 c 0.393,-0.421 0.588,-0.758 0.588,-1.012 0,-0.254 -0.195,-0.562 -0.584,-0.926 l -0.809,-0.753 -0.019,0.021 c 0.215,0.53 -0.065,1.208 -0.832,2.031 -1.151,1.235 -2.244,1.368 -3.282,0.403 -1.023,-0.957 -0.974,-2.039 0.151,-3.245 0.775,-0.831 1.517,-1.129 2.23,-0.895 l 0.022,-0.036 -0.736,-0.58 1.115,-1.194 3.258,3.04 C 1.797,-2.498 2.121,-1.9 2.072,-1.354 2.025,-0.807 1.582,-0.086 0.744,0.812 -0.023,1.636 -0.637,2.093 -1.1,2.183 -1.561,2.272 -2.09,2.039 -2.688,1.48 L -1.549,0.261 C -1.084,0.695 -0.566,0.608 0,0 m -1.781,-3.621 c -0.489,-0.457 -1.073,-0.322 -1.75,0.404 -0.416,0.445 -0.637,0.784 -0.668,1.018 -0.028,0.232 0.119,0.5 0.443,0.801 0.465,0.435 1.014,0.315 1.643,-0.36 0.722,-0.775 0.834,-1.395 0.332,-1.863"
             style="fill:#231f20;fill-opacity:1;fill-rule:nonzero;stroke:none"
             id="path74" /></g><g
           id="g76"
           transform="translate(177.5508,160.2998)"><path
             d="M 0,0 C -0.23,0.021 -0.52,0.252 -0.865,0.692 -1.307,1.253 -1.486,1.681 -1.406,1.977 -1.328,2.271 -0.914,2.712 -0.166,3.3 0.605,3.908 1.145,4.225 1.445,4.249 1.746,4.274 2.098,4.03 2.5,3.518 3.066,2.797 3.037,2.191 2.414,1.701 l 1,-1.273 C 4.172,1.024 4.559,1.593 4.57,2.135 4.584,2.677 4.227,3.411 3.496,4.338 2.742,5.299 2.047,5.799 1.412,5.838 0.777,5.876 -0.078,5.473 -1.156,4.627 -2.258,3.761 -2.861,3.019 -2.965,2.399 -3.068,1.78 -2.723,0.966 -1.93,-0.044 -0.848,-1.419 0.125,-1.895 0.986,-1.47 l 0.875,0.561 0.186,0.145 -1.004,1.279 C 0.58,0.15 0.232,-0.021 0,0"
             style="fill:#231f20;fill-opacity:1;fill-rule:nonzero;stroke:none"
             id="path78" /></g><g
           id="g80"
           transform="translate(186.2363,162.4775)"><path
             d="m 0,0 -8.113,-5.374 0.9,-1.361 2.52,1.669 0.222,-0.333 -1.297,-3.519 1.118,-1.688 1.429,4.377 3.987,-0.209 -1.047,1.582 -3.227,0.069 -0.232,0.35 L 0.9,-1.361 0,0 z"
             style="fill:#231f20;fill-opacity:1;fill-rule:nonzero;stroke:none"
             id="path82" /></g><g
           id="g84"
           transform="translate(185.002,148.4238)"><path
             d="M 0,0 C -0.201,0.095 -0.447,0.405 -0.736,0.93 -1.033,1.471 -1.135,1.887 -1.039,2.176 -0.941,2.464 -0.6,2.77 -0.012,3.093 0.029,3.116 0.119,3.16 0.256,3.226 l 2.223,-4.043 0.437,0.24 C 4.059,0.05 4.725,0.652 4.914,1.229 5.104,1.806 4.906,2.627 4.32,3.693 3.709,4.806 3.098,5.443 2.486,5.606 1.875,5.771 0.99,5.532 -0.172,4.893 -1.48,4.174 -2.236,3.52 -2.438,2.932 -2.641,2.342 -2.416,1.455 -1.764,0.268 -0.801,-1.482 0.264,-2.036 1.43,-1.395 L 1.662,-1.268 0.871,0.169 C 0.492,-0.039 0.201,-0.096 0,0 M 1.139,3.693 C 1.713,4.009 2.131,4.134 2.389,4.068 2.648,4.001 2.924,3.702 3.217,3.168 3.52,2.619 3.645,2.223 3.594,1.98 3.543,1.737 3.279,1.486 2.805,1.225 L 2.57,1.088 1.139,3.693 z"
             style="fill:#231f20;fill-opacity:1;fill-rule:nonzero;stroke:none"
             id="path86" /></g><g
           id="g88"
           transform="translate(185.2754,144.9785)"><path
             d="M 0,0 0.674,-1.487 4.33,0.169 C 5.313,0.615 5.971,0.469 6.307,-0.267 6.539,-0.782 6.324,-1.19 5.662,-1.49 5.609,-1.513 5.496,-1.555 5.318,-1.614 l 0.637,-1.403 0.434,0.197 c 1.377,0.624 1.818,1.482 1.324,2.573 C 7.367,0.515 6.789,0.927 5.98,0.987 L 5.971,1.022 6.883,1.326 6.209,2.813 0,0 z"
             style="fill:#231f20;fill-opacity:1;fill-rule:nonzero;stroke:none"
             id="path90" /></g><g
           id="g92"
           transform="translate(198.0508,131.4922)"><path
             d="M 0,0 C 0.963,0.298 1.535,0.741 1.715,1.33 1.896,1.918 1.771,2.911 1.338,4.311 0.881,5.786 0.396,6.715 -0.117,7.096 -0.631,7.477 -1.43,7.499 -2.516,7.163 -3.578,6.835 -4.207,6.416 -4.404,5.908 -4.6,5.399 -4.512,4.396 -4.143,2.897 L -3.904,1.904 C -3.766,1.346 -3.744,0.96 -3.84,0.748 -3.938,0.537 -4.211,0.362 -4.66,0.223 -5.268,0.034 -5.691,0.023 -5.926,0.189 -6.162,0.355 -6.4,0.833 -6.646,1.624 -6.959,2.636 -7.078,3.278 -7.002,3.55 c 0.074,0.272 0.438,0.509 1.086,0.71 L -5.721,4.328 -6.252,6.044 -6.59,5.932 C -7.672,5.598 -8.314,5.136 -8.521,4.547 -8.727,3.959 -8.604,2.933 -8.152,1.472 c 0.504,-1.626 1.009,-2.622 1.519,-2.988 0.508,-0.365 1.379,-0.356 2.613,0.026 1.006,0.311 1.604,0.718 1.795,1.223 0.192,0.505 0.114,1.462 -0.238,2.871 -0.299,1.191 -0.422,1.91 -0.369,2.155 0.053,0.245 0.373,0.459 0.959,0.64 0.496,0.153 0.859,0.125 1.094,-0.084 0.234,-0.209 0.48,-0.73 0.738,-1.566 C 0.178,3.041 0.25,2.57 0.176,2.338 0.1,2.106 -0.191,1.889 -0.701,1.687 L -0.889,1.614 -0.355,-0.109 0,0 z"
             style="fill:#231f20;fill-opacity:1;fill-rule:nonzero;stroke:none"
             id="path94" /></g><g
           id="g96"
           transform="translate(188.5391,127.5093)"><path
             d="M 0,0 0.348,-1.668 4.18,-0.865 4.186,-0.894 C 3.555,-1.361 3.35,-2.117 3.568,-3.165 3.773,-4.146 4.162,-4.767 4.73,-5.026 c 0.571,-0.26 1.52,-0.251 2.85,0.028 1.275,0.267 2.115,0.634 2.522,1.1 0.404,0.466 0.503,1.185 0.3,2.157 -0.218,1.052 -0.732,1.696 -1.533,1.93 l 0,0.037 L 9.873,0.371 9.533,1.997 0,0 z M 8.879,-2.741 C 8.652,-2.985 8.084,-3.202 7.172,-3.394 6.283,-3.58 5.686,-3.608 5.375,-3.478 c -0.309,0.129 -0.527,0.506 -0.658,1.129 -0.129,0.615 -0.072,1.052 0.17,1.311 0.24,0.26 0.795,0.48 1.66,0.661 0.891,0.186 1.49,0.215 1.805,0.086 0.312,-0.128 0.533,-0.498 0.66,-1.106 0.136,-0.652 0.093,-1.1 -0.133,-1.344"
             style="fill:#231f20;fill-opacity:1;fill-rule:nonzero;stroke:none"
             id="path98" /></g><g
           id="g100"
           transform="translate(198.998,118.4434)"><path
             d="m 0,0 c 0.07,-0.571 0.029,-0.959 -0.121,-1.164 -0.15,-0.205 -0.49,-0.339 -1.018,-0.402 L -2.238,-1.698 -2.24,-1.67 c 0.484,0.303 0.66,1.013 0.525,2.131 -0.201,1.676 -1.006,2.43 -2.412,2.26 -1.391,-0.167 -1.988,-1.07 -1.793,-2.708 0.137,-1.128 0.561,-1.807 1.274,-2.037 l -0.002,-0.043 -0.938,-0.034 0.195,-1.622 4.424,0.533 c 0.946,0.114 1.559,0.405 1.842,0.875 0.283,0.47 0.354,1.313 0.205,2.531 C 0.947,1.334 0.719,2.066 0.4,2.411 0.08,2.756 -0.484,2.879 -1.297,2.781 L -1.096,1.125 C -0.465,1.201 -0.098,0.825 0,0 m -3.574,-1.874 c -0.664,-0.08 -1.057,0.374 -1.174,1.36 -0.074,0.604 -0.053,1.009 0.06,1.214 0.116,0.205 0.391,0.334 0.831,0.387 0.63,0.077 1.003,-0.344 1.113,-1.259 0.127,-1.052 -0.149,-1.62 -0.83,-1.702"
             style="fill:#231f20;fill-opacity:1;fill-rule:nonzero;stroke:none"
             id="path102" /></g><g
           id="g104"
           transform="translate(195.3242,109.2383)"><path
             d="M 0,0 C -0.174,0.153 -0.271,0.51 -0.293,1.071 -0.318,1.783 -0.211,2.235 0.025,2.427 0.264,2.619 0.859,2.732 1.809,2.766 2.791,2.802 3.412,2.741 3.67,2.583 3.928,2.427 4.068,2.022 4.092,1.372 4.125,0.455 3.744,-0.018 2.953,-0.046 L 3.01,-1.664 c 0.965,0.035 1.613,0.268 1.941,0.698 0.33,0.431 0.473,1.235 0.43,2.413 C 5.338,2.667 5.07,3.481 4.578,3.887 4.088,4.293 3.16,4.47 1.791,4.421 0.389,4.37 -0.535,4.125 -0.982,3.686 -1.43,3.246 -1.631,2.385 -1.584,1.102 c 0.063,-1.748 0.568,-2.705 1.516,-2.871 L 0.969,-1.83 1.203,-1.822 1.145,-0.197 C 0.557,-0.219 0.174,-0.153 0,0"
             style="fill:#231f20;fill-opacity:1;fill-rule:nonzero;stroke:none"
             id="path106" /></g><g
           id="g108"
           transform="translate(195.0547,102.1328)"><path
             d="M 0,0 C -0.121,0.187 -0.17,0.579 -0.141,1.178 -0.113,1.795 0.018,2.201 0.25,2.397 0.482,2.595 0.934,2.677 1.604,2.646 1.65,2.644 1.75,2.634 1.902,2.618 l -0.214,-4.608 0.5,-0.024 c 1.3,-0.06 2.183,0.106 2.646,0.498 0.461,0.393 0.723,1.198 0.779,2.412 C 5.672,2.164 5.484,3.027 5.047,3.485 4.611,3.943 3.732,4.203 2.406,4.265 0.916,4.334 -0.07,4.17 -0.551,3.773 -1.029,3.377 -1.301,2.502 -1.365,1.148 -1.457,-0.846 -0.838,-1.874 0.492,-1.935 L 0.756,-1.947 0.832,-0.31 C 0.398,-0.289 0.121,-0.186 0,0 M 2.898,2.557 C 3.555,2.526 3.975,2.416 4.16,2.224 4.348,2.031 4.426,1.632 4.398,1.024 4.369,0.397 4.27,-0.006 4.1,-0.186 3.928,-0.365 3.572,-0.443 3.033,-0.419 l -0.271,0.006 0.136,2.97 z"
             style="fill:#231f20;fill-opacity:1;fill-rule:nonzero;stroke:none"
             id="path110" /></g><g
           id="g112"
           transform="translate(94.3809,21.2676)"><path
             d="M 0,0 1.221,6.893 0.064,7.097 -0.421,4.354 C -0.566,3.537 -1.032,3.198 -1.82,3.338 -2.396,3.439 -2.633,3.773 -2.533,4.339 l 0.028,0.155 0.525,2.965 -1.157,0.205 -0.581,-3.283 c -0.189,-1.066 0.28,-1.7 1.408,-1.9 0.774,-0.137 1.32,0.062 1.636,0.596 L -0.649,3.067 -1.156,0.204 0,0 z"
             style="fill:#231f20;fill-opacity:1;fill-rule:nonzero;stroke:none"
             id="path114" /></g><g
           id="g116"
           transform="translate(87.835,24.6963)"><path
             d="M 0,0 -0.254,-1.067 0.889,-1.339 1.142,-0.271 1.761,-0.419 1.967,0.449 1.349,0.597 1.956,3.156 C 2.178,4.092 1.779,4.68 0.762,4.92 -0.259,5.163 -0.888,4.927 -1.124,4.214 -1.174,4.061 -1.226,3.875 -1.277,3.654 l -0.057,-0.239 0.972,-0.231 0.045,0.19 C -0.189,3.909 0.06,4.133 0.428,4.046 0.764,3.966 0.879,3.705 0.774,3.263 L 0.206,0.867 -1.63,1.304 -1.836,0.436 0,0 z"
             style="fill:#231f20;fill-opacity:1;fill-rule:nonzero;stroke:none"
             id="path118" /></g><g
           id="g120"
           transform="translate(83.8218,25.7441)"><path
             d="m 0,0 -0.304,-1.055 1.128,-0.326 0.304,1.055 0.611,-0.177 0.247,0.858 -0.611,0.176 0.73,2.528 C 2.372,3.98 2.003,4.587 0.998,4.877 -0.01,5.168 -0.65,4.963 -0.92,4.263 -0.977,4.111 -1.038,3.929 -1.1,3.712 l -0.068,-0.237 0.96,-0.278 0.054,0.188 C -0.001,3.914 0.258,4.126 0.622,4.021 0.954,3.925 1.056,3.658 0.931,3.221 L 0.248,0.856 -1.565,1.38 -1.813,0.522 0,0 z"
             style="fill:#231f20;fill-opacity:1;fill-rule:nonzero;stroke:none"
             id="path122" /></g><g
           id="g124"
           transform="translate(83.3604,33.1699)"><path
             d="m 0,0 -1.156,0.408 -0.936,-2.655 -0.019,0.008 c -0.053,0.561 -0.441,0.969 -1.166,1.226 -0.681,0.24 -1.206,0.232 -1.578,-0.02 -0.373,-0.252 -0.721,-0.84 -1.046,-1.762 -0.311,-0.884 -0.4,-1.536 -0.264,-1.96 0.135,-0.423 0.54,-0.753 1.213,-0.99 0.729,-0.258 1.316,-0.184 1.759,0.222 L -3.171,-5.536 -3.456,-6.208 -2.329,-6.605 0,0 z m -4.998,-4.436 c -0.065,0.23 0.013,0.661 0.235,1.293 0.218,0.616 0.424,0.995 0.619,1.136 0.195,0.142 0.508,0.136 0.94,-0.016 0.426,-0.151 0.673,-0.348 0.743,-0.594 0.069,-0.246 -0.003,-0.668 -0.214,-1.268 -0.217,-0.615 -0.423,-0.996 -0.619,-1.14 -0.196,-0.145 -0.506,-0.143 -0.928,0.006 -0.451,0.159 -0.71,0.353 -0.776,0.583"
             style="fill:#231f20;fill-opacity:1;fill-rule:nonzero;stroke:none"
             id="path126" /></g><g
           id="g128"
           transform="translate(72.2754,30.1992)"><path
             d="m 0,0 c 0.184,-0.287 0.651,-0.592 1.402,-0.912 0.795,-0.34 1.372,-0.479 1.73,-0.417 0.357,0.062 0.647,0.351 0.867,0.867 C 4.245,0.113 4.253,0.559 4.025,0.871 3.797,1.185 3.2,1.548 2.235,1.96 1.808,2.144 1.675,2.425 1.838,2.805 2.007,3.201 2.433,3.253 3.115,2.962 3.775,2.68 3.998,2.348 3.783,1.968 L 3.69,1.828 4.813,1.35 4.86,1.462 C 5.085,1.987 5.097,2.406 4.896,2.718 4.695,3.031 4.21,3.353 3.439,3.682 2.638,4.024 2.037,4.156 1.637,4.076 1.237,3.996 0.919,3.682 0.684,3.131 0.463,2.616 0.434,2.226 0.595,1.959 0.756,1.693 1.214,1.376 1.968,1.01 2.528,0.736 2.847,0.556 2.926,0.467 3.005,0.376 2.991,0.207 2.885,-0.041 2.729,-0.405 2.37,-0.467 1.807,-0.227 1.414,-0.059 1.179,0.073 1.099,0.171 1.02,0.268 1.016,0.43 1.086,0.656 L 1.108,0.747 0.052,1.199 C -0.167,0.687 -0.185,0.287 0,0"
             style="fill:#231f20;fill-opacity:1;fill-rule:nonzero;stroke:none"
             id="path130" /></g><g
           id="g132"
           transform="translate(72.311,33.959)"><path
             d="M 0,0 0.547,1.137 -0.511,1.646 -1.058,0.509 0,0 z m -1.58,-3.28 0.547,1.136 -1.057,0.51 -0.548,-1.137 1.058,-0.509 z"
             style="fill:#231f20;fill-opacity:1;fill-rule:nonzero;stroke:none"
             id="path134" /></g><g
           id="g136"
           transform="translate(63.7734,31.9297)"><path
             d="M 0,0 9.103,5.393 8.33,5.816 -0.774,0.425 0,0 z"
             style="fill:#231f20;fill-opacity:1;fill-rule:nonzero;stroke:none"
             id="path138" /></g><g
           id="g140"
           transform="translate(58.0391,35.5137)"><path
             d="M 0,0 9.491,4.674 8.753,5.155 -0.739,0.482 0,0 z"
             style="fill:#231f20;fill-opacity:1;fill-rule:nonzero;stroke:none"
             id="path142" /></g><g
           id="g144"
           transform="translate(60.2178,42.5127)"><path
             d="m 0,0 -0.934,0.712 -1.762,-2.314 c -0.454,-0.594 -0.994,-0.652 -1.623,-0.174 -0.413,0.315 -0.531,0.634 -0.352,0.959 l 0.187,0.289 0.112,0.147 1.79,2.349 -0.934,0.712 -2.023,-2.656 c -0.654,-0.859 -0.522,-1.639 0.4,-2.341 0.634,-0.484 1.222,-0.56 1.762,-0.228 L -3.36,-2.564 -3.897,-3.193 -2.972,-3.898 0,0 z"
             style="fill:#231f20;fill-opacity:1;fill-rule:nonzero;stroke:none"
             id="path146" /></g><g
           id="g148"
           transform="translate(52.7642,42.6182)"><path
             d="M 0,0 C 0.421,0.041 0.97,0.448 1.648,1.223 2.351,2.029 2.695,2.647 2.68,3.079 2.665,3.51 2.279,4.055 1.524,4.715 0.83,5.321 0.263,5.592 -0.176,5.526 -0.615,5.461 -1.192,5.019 -1.907,4.199 -2.548,3.466 -2.857,2.888 -2.835,2.468 -2.813,2.046 -2.445,1.524 -1.732,0.901 -0.999,0.26 -0.421,-0.04 0,0 m -1.637,2.397 c 0.014,0.22 0.227,0.564 0.639,1.036 0.489,0.557 0.845,0.869 1.069,0.931 C 0.296,4.427 0.592,4.297 0.96,3.976 1.342,3.642 1.519,3.365 1.493,3.143 1.467,2.92 1.21,2.531 0.725,1.976 0.3,1.489 -0.021,1.223 -0.237,1.178 -0.454,1.133 -0.746,1.271 -1.114,1.594 -1.477,1.91 -1.651,2.179 -1.637,2.397"
             style="fill:#231f20;fill-opacity:1;fill-rule:nonzero;stroke:none"
             id="path150" /></g><g
           id="g152"
           transform="translate(47.0654,44.3691)"><path
             d="M 0,0 0.679,0.706 -0.168,1.52 -0.847,0.813 0,0 z M 1.453,1.512 4.851,5.046 4.004,5.859 0.607,2.325 1.453,1.512 z"
             style="fill:#231f20;fill-opacity:1;fill-rule:nonzero;stroke:none"
             id="path154" /></g><g
           id="g156"
           transform="translate(44.3936,50.3848)"><path
             d="m 0,0 c 0.056,-0.336 0.365,-0.801 0.928,-1.394 0.595,-0.627 1.07,-0.982 1.424,-1.066 0.353,-0.084 0.732,0.067 1.139,0.454 0.454,0.43 0.637,0.835 0.552,1.212 C 3.957,-0.415 3.552,0.154 2.83,0.916 2.51,1.252 2.5,1.563 2.799,1.849 3.111,2.146 3.523,2.024 4.034,1.486 4.528,0.967 4.602,0.574 4.254,0.31 l -0.14,-0.091 0.84,-0.885 0.089,0.085 c 0.415,0.393 0.591,0.773 0.53,1.14 C 5.513,0.926 5.194,1.412 4.617,2.02 4.017,2.651 3.517,3.01 3.117,3.096 2.718,3.181 2.302,3.018 1.868,2.604 1.462,2.219 1.28,1.872 1.323,1.563 1.366,1.256 1.661,0.784 2.208,0.148 2.614,-0.323 2.835,-0.617 2.873,-0.73 2.91,-0.844 2.83,-0.994 2.634,-1.18 2.347,-1.452 1.993,-1.367 1.571,-0.923 c -0.294,0.31 -0.458,0.524 -0.493,0.646 -0.035,0.12 0.026,0.27 0.18,0.449 L 1.315,0.246 0.523,1.08 C 0.12,0.696 -0.055,0.335 0,0"
             style="fill:#231f20;fill-opacity:1;fill-rule:nonzero;stroke:none"
             id="path158" /></g><g
           id="g160"
           transform="translate(44.1982,56.3086)"><path
             d="M 0,0 C 0.155,-0.041 0.371,-0.226 0.647,-0.557 0.932,-0.896 1.061,-1.176 1.033,-1.393 1.005,-1.61 0.806,-1.873 0.436,-2.183 L 0.265,-2.313 -1.863,0.233 -2.138,0.004 c -0.719,-0.602 -1.106,-1.117 -1.161,-1.551 -0.054,-0.433 0.199,-0.986 0.76,-1.657 0.585,-0.701 1.105,-1.067 1.559,-1.098 0.453,-0.03 1.045,0.26 1.777,0.872 0.824,0.688 1.266,1.253 1.328,1.697 C 2.187,-1.29 1.905,-0.694 1.281,0.054 0.36,1.155 -0.467,1.398 -1.202,0.785 L -1.348,0.664 -0.591,-0.24 C -0.353,-0.041 -0.155,0.038 0,0 m -0.294,-2.766 c -0.361,-0.3 -0.639,-0.447 -0.83,-0.436 -0.192,0.013 -0.428,0.184 -0.709,0.52 -0.289,0.347 -0.433,0.609 -0.43,0.787 0.002,0.178 0.154,0.392 0.452,0.642 l 0.147,0.129 1.37,-1.642 z"
             style="fill:#231f20;fill-opacity:1;fill-rule:nonzero;stroke:none"
             id="path162" /></g><g
           id="g164"
           transform="translate(42.8271,59.6162)"><path
             d="m 0,0 -0.595,-0.498 -0.015,0.02 C -0.304,0.043 -0.375,0.61 -0.824,1.226 -1.268,1.834 -1.712,2.14 -2.156,2.143 -2.601,2.146 -3.233,1.848 -4.054,1.25 -4.805,0.701 -5.242,0.221 -5.365,-0.193 c -0.124,-0.413 0.022,-0.906 0.437,-1.474 0.484,-0.663 0.993,-0.924 1.529,-0.781 l 0.007,-0.028 -2.261,-1.65 0.692,-0.949 5.654,4.126 L 0,0 z m -4.209,-0.581 c 0.079,0.222 0.379,0.521 0.898,0.899 0.557,0.409 0.954,0.616 1.188,0.62 0.235,0.007 0.494,-0.183 0.775,-0.57 0.27,-0.37 0.359,-0.67 0.265,-0.898 -0.093,-0.229 -0.438,-0.563 -1.038,-1 -0.765,-0.557 -1.372,-0.53 -1.821,0.088 -0.259,0.352 -0.348,0.639 -0.267,0.861"
             style="fill:#231f20;fill-opacity:1;fill-rule:nonzero;stroke:none"
             id="path166" /></g><g
           id="g168"
           transform="translate(40.3184,63.1055)"><path
             d="m 0,0 -0.622,0.996 -2.448,-1.53 c -0.658,-0.411 -1.141,-0.371 -1.45,0.121 -0.214,0.345 -0.101,0.655 0.343,0.934 0.034,0.022 0.113,0.061 0.233,0.121 L -4.531,1.581 -4.823,1.399 c -0.922,-0.576 -1.155,-1.23 -0.698,-1.961 0.319,-0.509 0.771,-0.748 1.354,-0.712 l 0.01,-0.027 -0.621,-0.303 0.622,-0.995 L 0,0 z"
             style="fill:#231f20;fill-opacity:1;fill-rule:nonzero;stroke:none"
             id="path170" /></g><g
           id="g172"
           transform="translate(31.9917,63.2441)"><path
             d="M 0,0 0.844,0.496 0.25,1.509 -0.594,1.014 0,0 z M 1.809,1.062 6.036,3.543 5.442,4.556 1.214,2.074 1.809,1.062 z"
             style="fill:#231f20;fill-opacity:1;fill-rule:nonzero;stroke:none"
             id="path174" /></g><g
           id="g176"
           transform="translate(29.2051,68.2803)"><path
             d="M 0,0 2.474,1.3 2.488,1.284 C 2.133,0.874 2.14,0.314 2.513,-0.394 2.833,-1.005 3.208,-1.353 3.634,-1.433 4.061,-1.514 4.662,-1.351 5.437,-0.943 6.396,-0.44 6.974,0.006 7.17,0.392 7.366,0.778 7.284,1.317 6.923,2.004 6.566,2.685 6.081,2.993 5.469,2.931 L 5.464,2.951 6.183,3.282 5.651,4.294 -0.546,1.041 0,0 z M 2.982,1.315 C 3.08,1.531 3.396,1.779 3.929,2.06 4.574,2.396 5.016,2.556 5.255,2.532 5.495,2.51 5.725,2.29 5.944,1.872 6.154,1.473 6.198,1.167 6.077,0.957 5.956,0.746 5.581,0.476 4.951,0.146 4.406,-0.14 4.021,-0.271 3.796,-0.241 3.571,-0.213 3.356,-0.005 3.152,0.383 2.94,0.788 2.883,1.099 2.982,1.315"
             style="fill:#231f20;fill-opacity:1;fill-rule:nonzero;stroke:none"
             id="path178" /></g><g
           id="g180"
           transform="translate(28.6172,74.4697)"><path
             d="M 0,0 0.719,0.379 0.729,0.356 C 0.299,-0.1 0.241,-0.684 0.557,-1.396 c 0.289,-0.654 0.65,-1.034 1.082,-1.14 0.431,-0.106 1.069,0.028 1.914,0.401 0.896,0.398 1.454,0.792 1.673,1.187 0.218,0.393 0.177,0.929 -0.123,1.607 C 4.8,1.345 4.367,1.676 3.805,1.655 L 3.798,1.681 4.807,2.126 C 5.357,2.37 5.779,2.159 6.074,1.493 6.241,1.114 6.308,0.854 6.273,0.706 6.239,0.561 6.076,0.423 5.786,0.295 l 0.461,-1.041 c 0.609,0.268 0.96,0.58 1.051,0.931 C 7.39,0.534 7.265,1.095 6.925,1.864 6.574,2.658 6.197,3.142 5.794,3.317 5.391,3.493 4.824,3.418 4.093,3.095 L -0.475,1.074 0,0 z M 1.147,0.261 C 1.263,0.462 1.617,0.693 2.208,0.954 2.824,1.228 3.249,1.34 3.484,1.295 3.72,1.249 3.931,1.016 4.117,0.593 4.304,0.171 4.335,-0.137 4.212,-0.331 4.09,-0.526 3.712,-0.764 3.081,-1.042 2.487,-1.306 2.081,-1.416 1.861,-1.371 1.642,-1.329 1.441,-1.101 1.258,-0.688 1.067,-0.256 1.03,0.06 1.147,0.261"
             style="fill:#231f20;fill-opacity:1;fill-rule:nonzero;stroke:none"
             id="path182" /></g><g
           id="g184"
           transform="translate(30.3242,80.9307)"><path
             d="M 0,0 C 0.133,-0.089 0.272,-0.336 0.421,-0.739 0.574,-1.157 0.6,-1.464 0.5,-1.658 0.401,-1.854 0.125,-2.034 -0.328,-2.199 -0.36,-2.211 -0.429,-2.231 -0.535,-2.264 L -1.674,0.853 -2.011,0.729 c -0.88,-0.322 -1.418,-0.678 -1.616,-1.067 -0.198,-0.39 -0.147,-0.994 0.154,-1.817 0.313,-0.857 0.678,-1.376 1.094,-1.558 0.417,-0.183 1.072,-0.11 1.968,0.217 1.009,0.368 1.617,0.751 1.825,1.147 0.207,0.398 0.144,1.053 -0.191,1.967 C 0.73,0.967 0.034,1.477 -0.865,1.148 L -1.043,1.083 -0.638,-0.024 C -0.346,0.081 -0.133,0.09 0,0 m -1.212,-2.501 c -0.443,-0.162 -0.753,-0.205 -0.929,-0.13 -0.177,0.076 -0.341,0.319 -0.491,0.73 -0.155,0.423 -0.201,0.718 -0.139,0.886 0.063,0.166 0.277,0.317 0.644,0.451 l 0.181,0.071 0.734,-2.008 z"
             style="fill:#231f20;fill-opacity:1;fill-rule:nonzero;stroke:none"
             id="path186" /></g><g
           id="g188"
           transform="translate(29.3154,82.9893)"><path
             d="M 0,0 1.203,0.378 0.851,1.499 -0.353,1.12 0,0 z"
             style="fill:#231f20;fill-opacity:1;fill-rule:nonzero;stroke:none"
             id="path190" /></g><g
           id="g192"
           transform="translate(29.8428,85.4688)"><path
             d="M 0,0 -0.298,1.136 -3.11,0.396 c -0.724,-0.19 -1.186,0.097 -1.387,0.86 -0.132,0.503 -0.028,0.827 0.311,0.973 l 0.327,0.112 0.178,0.048 2.856,0.751 -0.299,1.134 -3.228,-0.848 C -5.396,3.151 -5.771,2.453 -5.477,1.333 -5.275,0.563 -4.857,0.142 -4.228,0.07 L -4.226,0.045 -5.036,-0.121 -4.741,-1.246 0,0 z"
             style="fill:#231f20;fill-opacity:1;fill-rule:nonzero;stroke:none"
             id="path194" /></g><g
           id="g196"
           transform="translate(26.9902,93.4707)"><path
             d="M 0,0 C 0.118,-0.109 0.217,-0.377 0.299,-0.799 0.383,-1.235 0.36,-1.542 0.23,-1.719 0.101,-1.895 -0.2,-2.028 -0.673,-2.12 -0.708,-2.125 -0.778,-2.137 -0.887,-2.15 L -1.516,1.105 -1.868,1.038 c -0.92,-0.177 -1.509,-0.442 -1.766,-0.795 -0.258,-0.352 -0.303,-0.959 -0.137,-1.817 0.173,-0.897 0.45,-1.468 0.832,-1.715 0.382,-0.246 1.041,-0.279 1.977,-0.098 1.054,0.203 1.716,0.485 1.984,0.842 0.268,0.359 0.31,1.017 0.125,1.973 C 0.875,0.838 0.27,1.451 -0.67,1.271 L -0.856,1.233 -0.633,0.076 C -0.327,0.135 -0.116,0.11 0,0 m -1.594,-2.277 c -0.463,-0.089 -0.776,-0.082 -0.938,0.02 -0.163,0.103 -0.286,0.369 -0.369,0.799 -0.085,0.442 -0.083,0.741 0.005,0.895 0.088,0.156 0.324,0.27 0.707,0.343 l 0.19,0.043 0.405,-2.1 z"
             style="fill:#231f20;fill-opacity:1;fill-rule:nonzero;stroke:none"
             id="path198" /></g><g
           id="g200"
           transform="translate(22.5283,96.4727)"><path
             d="m 0,0 -1.087,-0.147 0.157,-1.164 1.088,0.147 0.084,-0.63 0.884,0.119 -0.085,0.63 2.607,0.352 C 4.6,-0.563 5.006,0.019 4.866,1.055 4.726,2.095 4.28,2.597 3.53,2.561 3.369,2.553 3.176,2.534 2.953,2.504 L 2.709,2.471 2.842,1.48 3.036,1.506 C 3.581,1.58 3.879,1.429 3.93,1.052 3.977,0.71 3.774,0.509 3.323,0.448 L 0.884,0.118 0.632,1.988 -0.252,1.869 0,0 z"
             style="fill:#231f20;fill-opacity:1;fill-rule:nonzero;stroke:none"
             id="path202" /></g><g
           id="g204"
           transform="translate(113.2813,14.1289)"><path
             d="M 0,0 -0.016,0.176 C -0.051,0.63 -0.012,0.911 0.104,1.018 0.219,1.123 0.652,1.276 1.402,1.476 2.311,1.72 2.883,1.979 3.119,2.254 3.355,2.528 3.443,3.041 3.383,3.794 3.32,4.589 3.109,5.116 2.75,5.374 2.391,5.631 1.74,5.723 0.799,5.648 -0.164,5.572 -0.803,5.379 -1.115,5.071 -1.428,4.764 -1.551,4.204 -1.486,3.393 l 0.021,-0.271 1.203,0.095 -0.021,0.275 c -0.039,0.471 0.01,0.774 0.142,0.905 C -0.008,4.53 0.328,4.618 0.873,4.662 1.4,4.703 1.738,4.67 1.889,4.562 2.039,4.452 2.133,4.175 2.168,3.726 2.205,3.258 2.158,2.963 2.025,2.839 1.895,2.716 1.453,2.556 0.703,2.359 -0.203,2.122 -0.77,1.882 -0.996,1.639 -1.225,1.395 -1.311,0.931 -1.256,0.248 L -1.15,-1.068 3.738,-0.68 3.662,0.292 0,0 z"
             style="fill:#231f20;fill-opacity:1;fill-rule:nonzero;stroke:none"
             id="path206" /></g><g
           id="g208"
           transform="translate(119.7051,20.3457)"><path
             d="m 0,0 -1.793,-2.235 0.84,-0.68 1.428,1.898 0.779,-5.358 1.219,0.178 L 1.539,0.224 0,0 z"
             style="fill:#231f20;fill-opacity:1;fill-rule:nonzero;stroke:none"
             id="path210" /></g><g
           id="g212"
           transform="translate(128.5957,20.334)"><path
             d="M 0,0 C -0.135,0.633 -0.391,1.032 -0.771,1.2 -1.15,1.37 -1.773,1.361 -2.643,1.176 -3.832,0.922 -4.52,0.589 -4.705,0.178 c -0.188,-0.412 -0.108,-1.426 0.236,-3.036 0.278,-1.305 0.598,-2.096 0.961,-2.37 0.363,-0.274 1.113,-0.29 2.246,-0.047 0.922,0.196 1.512,0.47 1.77,0.824 0.258,0.353 0.301,0.941 0.125,1.762 -0.153,0.71 -0.404,1.162 -0.756,1.356 -0.354,0.196 -0.938,0.207 -1.752,0.033 -0.832,-0.176 -1.307,-0.492 -1.428,-0.945 l -0.023,-0.005 -0.233,1.092 c -0.101,0.48 -0.087,0.797 0.041,0.949 0.129,0.152 0.508,0.297 1.133,0.43 0.432,0.092 0.723,0.105 0.875,0.043 0.155,-0.063 0.262,-0.243 0.324,-0.541 L -1.158,-0.422 0.035,-0.167 0,0 z m -0.912,-2.274 c 0.158,-0.08 0.283,-0.336 0.375,-0.767 0.098,-0.455 0.088,-0.754 -0.026,-0.897 -0.113,-0.143 -0.445,-0.272 -0.998,-0.39 -0.576,-0.123 -0.949,-0.137 -1.119,-0.039 -0.17,0.096 -0.31,0.403 -0.42,0.92 -0.076,0.356 -0.045,0.602 0.094,0.737 0.137,0.135 0.49,0.264 1.057,0.385 0.533,0.113 0.879,0.13 1.037,0.051"
             style="fill:#231f20;fill-opacity:1;fill-rule:nonzero;stroke:none"
             id="path214" /></g><g
           id="g216"
           transform="translate(130.502,17.4717)"><path
             d="M 0,0 C 0.174,-0.615 0.457,-0.989 0.85,-1.122 1.242,-1.256 1.885,-1.194 2.781,-0.94 3.943,-0.611 4.607,-0.241 4.773,0.169 4.938,0.58 4.807,1.538 4.381,3.041 3.984,4.437 3.604,5.261 3.238,5.514 2.871,5.765 2.109,5.727 0.955,5.4 0.064,5.147 -0.494,4.836 -0.719,4.466 -0.945,4.095 -0.943,3.5 -0.711,2.679 -0.512,1.978 -0.232,1.548 0.127,1.394 0.486,1.236 1.092,1.278 1.947,1.521 2.705,1.734 3.127,2.075 3.209,2.54 L 3.23,2.547 3.488,1.637 C 3.654,1.055 3.689,0.682 3.596,0.52 3.502,0.358 3.154,0.192 2.553,0.022 1.998,-0.136 1.645,-0.188 1.49,-0.134 1.338,-0.08 1.203,0.145 1.092,0.542 L -0.061,0.215 0,0 z M 2.434,4.608 C 2.613,4.537 2.768,4.27 2.898,3.807 3.014,3.401 3.016,3.128 2.904,2.985 2.793,2.843 2.455,2.691 1.891,2.532 1.357,2.381 1.01,2.34 0.846,2.409 0.684,2.478 0.541,2.728 0.42,3.157 0.299,3.585 0.287,3.873 0.387,4.024 0.484,4.177 0.779,4.322 1.27,4.461 1.869,4.631 2.256,4.68 2.434,4.608"
             style="fill:#231f20;fill-opacity:1;fill-rule:nonzero;stroke:none"
             id="path218" /></g><g
           id="g220"
           transform="translate(136.6133,18.8203)"><path
             d="M 0,0 0.367,-1.111 1.4,-0.769 1.033,0.343 0,0 z"
             style="fill:#231f20;fill-opacity:1;fill-rule:nonzero;stroke:none"
             id="path222" /></g><g
           id="g224"
           transform="translate(139.2109,18.4014)"><path
             d="M 0,0 1.014,0.399 0.051,2.851 C -0.219,3.534 -0.041,3.998 0.58,4.243 0.881,4.362 1.1,4.383 1.236,4.31 1.373,4.235 1.51,4.022 1.648,3.671 L 2.678,1.052 3.689,1.449 2.719,3.924 C 2.455,4.594 2.631,5.049 3.248,5.291 3.74,5.484 4.105,5.281 4.34,4.684 l 1.014,-2.58 1.013,0.398 -1.101,2.8 C 4.879,6.288 4.197,6.589 3.217,6.203 2.545,5.939 2.213,5.507 2.219,4.907 L 2.201,4.901 C 1.91,5.389 1.385,5.483 0.619,5.183 -0.035,4.926 -0.373,4.522 -0.396,3.972 L -0.42,3.968 -0.648,4.628 -1.662,4.23 0,0 z"
             style="fill:#231f20;fill-opacity:1;fill-rule:nonzero;stroke:none"
             id="path226" /></g><g
           id="g228"
           transform="translate(144.0762,27.3994)"><path
             d="M 0,0 0.379,-0.826 1.369,-0.373 0.99,0.452 0,0 z m 0.809,-1.769 1.89,-4.131 0.99,0.451 -1.89,4.134 -0.99,-0.454 z"
             style="fill:#231f20;fill-opacity:1;fill-rule:nonzero;stroke:none"
             id="path230" /></g><g
           id="g232"
           transform="translate(149.9707,27.8613)"><path
             d="m 0,0 c -0.313,0.04 -0.809,-0.109 -1.484,-0.45 -0.717,-0.361 -1.159,-0.687 -1.329,-0.977 -0.169,-0.292 -0.136,-0.669 0.098,-1.134 0.26,-0.517 0.57,-0.789 0.93,-0.814 0.357,-0.025 0.971,0.182 1.84,0.619 0.384,0.193 0.664,0.119 0.836,-0.223 0.179,-0.357 -0.037,-0.69 -0.651,-0.999 -0.595,-0.299 -0.963,-0.258 -1.105,0.12 l -0.041,0.149 -1.012,-0.51 0.053,-0.1 c 0.236,-0.473 0.527,-0.732 0.869,-0.777 0.342,-0.044 0.859,0.109 1.553,0.458 0.72,0.364 1.173,0.711 1.355,1.042 0.182,0.332 0.149,0.745 -0.099,1.242 -0.235,0.462 -0.495,0.716 -0.78,0.761 -0.285,0.045 -0.781,-0.091 -1.492,-0.406 -0.529,-0.233 -0.848,-0.352 -0.957,-0.354 -0.111,-0.002 -0.223,0.109 -0.336,0.331 -0.166,0.329 0.006,0.62 0.512,0.876 0.353,0.178 0.59,0.266 0.705,0.264 0.117,-0.001 0.234,-0.096 0.351,-0.28 l 0.051,-0.07 0.951,0.479 C 0.588,-0.292 0.314,-0.041 0,0"
             style="fill:#231f20;fill-opacity:1;fill-rule:nonzero;stroke:none"
             id="path234" /></g><g
           id="g236"
           transform="translate(154.1699,30.2061)"><path
             d="m 0,0 c -0.314,0.025 -0.801,-0.151 -1.459,-0.525 -0.695,-0.398 -1.121,-0.746 -1.275,-1.045 -0.153,-0.3 -0.102,-0.676 0.156,-1.126 0.287,-0.505 0.611,-0.76 0.971,-0.766 0.359,-0.007 0.961,0.231 1.806,0.713 0.373,0.215 0.656,0.154 0.846,-0.179 0.197,-0.346 -0.002,-0.691 -0.6,-1.032 -0.578,-0.329 -0.947,-0.309 -1.107,0.063 l -0.051,0.147 -0.982,-0.562 0.056,-0.097 c 0.262,-0.46 0.565,-0.704 0.909,-0.731 0.343,-0.026 0.853,0.153 1.527,0.538 0.701,0.4 1.135,0.77 1.301,1.111 0.164,0.341 0.109,0.752 -0.166,1.233 -0.258,0.451 -0.53,0.693 -0.817,0.722 -0.287,0.03 -0.777,-0.132 -1.47,-0.484 -0.514,-0.261 -0.829,-0.394 -0.938,-0.402 -0.109,-0.009 -0.227,0.096 -0.352,0.313 -0.181,0.319 -0.025,0.62 0.467,0.9 0.344,0.197 0.574,0.298 0.69,0.302 0.115,0.004 0.238,-0.083 0.365,-0.263 l 0.055,-0.066 0.925,0.527 C 0.602,-0.261 0.316,-0.024 0,0"
             style="fill:#231f20;fill-opacity:1;fill-rule:nonzero;stroke:none"
             id="path238" /></g><g
           id="g240"
           transform="translate(154.2344,32.7705)"><path
             d="M 0,0 0.479,-0.771 1.404,-0.196 0.924,0.575 0,0 z m 1.025,-1.651 2.399,-3.86 0.926,0.574 -2.399,3.861 -0.926,-0.575 z"
             style="fill:#231f20;fill-opacity:1;fill-rule:nonzero;stroke:none"
             id="path242" /></g><g
           id="g244"
           transform="translate(157.4824,32.0605)"><path
             d="m 0,0 c -0.064,-0.387 0.172,-0.977 0.705,-1.767 0.557,-0.821 1.029,-1.277 1.42,-1.364 0.389,-0.088 0.969,0.127 1.738,0.648 0.709,0.479 1.086,0.922 1.131,1.332 C 5.039,-0.742 4.779,-0.12 4.215,0.714 3.709,1.463 3.266,1.877 2.883,1.957 2.498,2.036 1.943,1.831 1.217,1.339 0.469,0.833 0.063,0.387 0,0 M 2.535,0.898 C 2.729,0.834 2.986,0.562 3.313,0.082 3.697,-0.488 3.891,-0.881 3.895,-1.098 3.896,-1.314 3.709,-1.549 3.334,-1.803 2.945,-2.064 2.654,-2.158 2.463,-2.082 2.27,-2.006 1.98,-1.686 1.598,-1.117 1.262,-0.621 1.1,-0.271 1.111,-0.066 1.123,0.138 1.314,0.366 1.691,0.62 2.061,0.871 2.342,0.964 2.535,0.898"
             style="fill:#231f20;fill-opacity:1;fill-rule:nonzero;stroke:none"
             id="path246" /></g><g
           id="g248"
           transform="translate(163.9512,31.4424)"><path
             d="M 0,0 0.867,0.657 -0.76,2.806 C -1.18,3.357 -1.098,3.855 -0.514,4.298 -0.131,4.59 0.184,4.616 0.43,4.376 L 0.641,4.137 0.744,4 2.398,1.818 3.266,2.477 1.396,4.94 C 0.791,5.739 0.061,5.814 -0.795,5.164 -1.385,4.719 -1.598,4.213 -1.436,3.648 L -1.457,3.638 -1.885,4.273 -2.744,3.621 0,0 z"
             style="fill:#231f20;fill-opacity:1;fill-rule:nonzero;stroke:none"
             id="path250" /></g><g
           id="g252"
           transform="translate(167.3789,35.5732)"><path
             d="M 0,0 0.74,-0.905 1.582,-0.214 0.84,0.69 0,0 z"
             style="fill:#231f20;fill-opacity:1;fill-rule:nonzero;stroke:none"
             id="path254" /></g><g
           id="g256"
           transform="translate(169.541,41.5967)"><path
             d="m 0,0 c -0.313,-0.04 -0.754,-0.312 -1.32,-0.813 -0.602,-0.531 -0.948,-0.958 -1.035,-1.284 -0.09,-0.325 0.037,-0.681 0.38,-1.07 0.385,-0.435 0.754,-0.618 1.106,-0.552 0.353,0.068 0.894,0.424 1.623,1.067 0.324,0.286 0.611,0.285 0.867,-0.002 C 1.885,-2.954 1.76,-3.331 1.244,-3.786 0.746,-4.228 0.379,-4.282 0.146,-3.951 l -0.08,0.133 -0.847,-0.749 0.076,-0.086 c 0.35,-0.397 0.697,-0.572 1.037,-0.529 0.342,0.044 0.805,0.323 1.387,0.837 0.605,0.536 0.953,0.988 1.045,1.354 0.093,0.367 -0.045,0.759 -0.412,1.175 -0.344,0.388 -0.661,0.568 -0.948,0.539 -0.287,-0.03 -0.732,-0.286 -1.34,-0.773 -0.451,-0.361 -0.73,-0.556 -0.835,-0.587 -0.106,-0.03 -0.243,0.047 -0.409,0.236 -0.244,0.275 -0.152,0.601 0.272,0.977 0.297,0.263 0.502,0.406 0.615,0.435 0.113,0.027 0.25,-0.032 0.412,-0.181 l 0.067,-0.055 0.798,0.704 C 0.641,-0.134 0.314,0.04 0,0"
             style="fill:#231f20;fill-opacity:1;fill-rule:nonzero;stroke:none"
             id="path258" /></g><g
           id="g260"
           transform="translate(174.5234,40.3477)"><path
             d="M 0,0 -2.576,2.679 -1.762,3.463 -2.334,4.06 -3.15,3.275 -3.486,3.625 c -0.33,0.343 -0.323,0.68 0.023,1.011 0.076,0.073 0.18,0.147 0.311,0.225 l -0.59,0.615 C -3.891,5.346 -4.006,5.243 -4.084,5.166 -4.555,4.714 -4.805,4.321 -4.83,3.99 -4.857,3.659 -4.67,3.286 -4.27,2.87 l 0.334,-0.35 -0.46,-0.444 0.572,-0.597 0.463,0.446 2.576,-2.68 L 0,0 z"
             style="fill:#231f20;fill-opacity:1;fill-rule:nonzero;stroke:none"
             id="path262" /></g><g
           id="g264"
           transform="translate(174.957,42.416)"><path
             d="M 0,0 0.832,-0.82 1.596,-0.045 0.764,0.775 0,0 z"
             style="fill:#231f20;fill-opacity:1;fill-rule:nonzero;stroke:none"
             id="path266" /></g><g
           id="g268"
           transform="translate(178.5117,45.8877)"><path
             d="m 0,0 c 0.012,-0.155 -0.109,-0.37 -0.361,-0.646 -0.323,-0.35 -0.584,-0.515 -0.787,-0.496 -0.204,0.022 -0.538,0.246 -1.004,0.673 -0.485,0.443 -0.752,0.762 -0.801,0.958 -0.049,0.196 0.074,0.453 0.367,0.772 0.412,0.452 0.815,0.499 1.205,0.141 l 0.729,0.796 C -1.127,2.633 -1.543,2.825 -1.9,2.774 -2.258,2.724 -2.703,2.409 -3.232,1.828 c -0.551,-0.6 -0.805,-1.11 -0.76,-1.533 0.041,-0.422 0.4,-0.941 1.074,-1.558 0.688,-0.632 1.242,-0.947 1.66,-0.948 0.42,-0.001 0.916,0.315 1.494,0.946 0.789,0.86 0.996,1.551 0.623,2.074 L 0.396,1.322 0.279,1.428 -0.451,0.629 C -0.162,0.363 -0.012,0.154 0,0"
             style="fill:#231f20;fill-opacity:1;fill-rule:nonzero;stroke:none"
             id="path270" /></g><g
           id="g272"
           transform="translate(179.002,50.8887)"><path
             d="M 0,0 C 0.244,0.295 0.451,0.455 0.617,0.477 0.785,0.499 1.006,0.396 1.281,0.172 L 1.85,-0.298 1.838,-0.312 C 1.469,-0.217 1.045,-0.459 0.566,-1.039 -0.148,-1.907 -0.141,-2.643 0.588,-3.242 1.309,-3.837 2.02,-3.71 2.719,-2.861 3.201,-2.276 3.332,-1.76 3.115,-1.31 l 0.022,0.019 0.449,-0.436 0.691,0.841 -2.293,1.888 C 1.494,1.405 1.072,1.567 0.715,1.487 0.357,1.408 -0.082,1.053 -0.602,0.421 -1.078,-0.158 -1.328,-0.604 -1.346,-0.917 -1.365,-1.229 -1.164,-1.56 -0.744,-1.905 l 0.707,0.858 C -0.365,-0.777 -0.352,-0.428 0,0 M 2.549,-0.861 C 2.895,-1.145 2.855,-1.543 2.436,-2.054 2.178,-2.367 1.973,-2.544 1.82,-2.583 c -0.15,-0.04 -0.34,0.034 -0.568,0.222 -0.328,0.27 -0.297,0.642 0.096,1.117 0.447,0.545 0.849,0.673 1.201,0.383"
             style="fill:#231f20;fill-opacity:1;fill-rule:nonzero;stroke:none"
             id="path274" /></g><g
           id="g276"
           transform="translate(183.0664,51.6611)"><path
             d="M 0,0 0.93,-0.708 1.59,0.158 0.658,0.866 0,0 z"
             style="fill:#231f20;fill-opacity:1;fill-rule:nonzero;stroke:none"
             id="path278" /></g><g
           id="g280"
           transform="translate(183.3555,57.7842)"><path
             d="M 0,0 2.031,-1.427 C 2.715,-1.907 2.857,-2.433 2.457,-3.004 2.262,-3.28 2.084,-3.429 1.922,-3.446 1.76,-3.465 1.521,-3.363 1.205,-3.14 l -2.283,1.604 -0.627,-0.892 2.498,-1.754 c 0.842,-0.59 1.561,-0.466 2.152,0.376 0.438,0.625 0.491,1.186 0.157,1.68 L 3.117,-2.114 3.719,-2.611 4.344,-1.722 0.627,0.891 0,0 z"
             style="fill:#231f20;fill-opacity:1;fill-rule:nonzero;stroke:none"
             id="path282" /></g><g
           id="g284"
           transform="translate(186.5527,62.3359)"><path
             d="m 0,0 c -0.289,-0.127 -0.635,-0.512 -1.037,-1.153 -0.426,-0.68 -0.637,-1.188 -0.629,-1.525 0.006,-0.336 0.228,-0.642 0.668,-0.919 0.492,-0.307 0.898,-0.379 1.219,-0.215 0.318,0.166 0.736,0.66 1.254,1.483 0.228,0.366 0.504,0.447 0.83,0.244 C 2.643,-2.298 2.631,-2.694 2.266,-3.276 1.912,-3.842 1.576,-3.998 1.26,-3.747 l -0.115,0.105 -0.6,-0.959 0.098,-0.06 c 0.447,-0.28 0.828,-0.352 1.144,-0.213 0.315,0.139 0.68,0.538 1.09,1.196 0.43,0.686 0.637,1.216 0.621,1.595 C 3.482,-1.705 3.24,-1.369 2.77,-1.074 2.328,-0.8 1.975,-0.717 1.709,-0.825 1.441,-0.935 1.086,-1.309 0.643,-1.947 0.311,-2.421 0.1,-2.688 0.006,-2.747 c -0.094,-0.059 -0.246,-0.023 -0.457,0.11 -0.313,0.196 -0.319,0.533 -0.016,1.015 0.209,0.336 0.365,0.533 0.465,0.592 0.1,0.058 0.25,0.039 0.445,-0.059 L 0.525,-1.121 1.09,-0.22 C 0.652,0.055 0.289,0.128 0,0"
             style="fill:#231f20;fill-opacity:1;fill-rule:nonzero;stroke:none"
             id="path286" /></g><g
           id="g288"
           transform="translate(204.0479,108.2202)"><path
             d="m 0,0 c -0.001,-26.49 -10.743,-50.463 -28.114,-67.839 -17.376,-17.371 -41.349,-28.114 -67.838,-28.115 -26.489,10e-4 -50.463,10.744 -67.838,28.115 -17.372,17.376 -28.113,41.349 -28.114,67.839 0.001,26.49 10.742,50.463 28.114,67.839 17.375,17.371 41.349,28.113 67.838,28.114 C -69.463,95.952 -45.49,85.211 -28.114,67.839 -10.743,50.463 -0.001,26.49 0,0 L 5,0 C 4.997,55.729 -40.225,100.951 -95.952,100.953 -151.681,100.951 -196.902,55.729 -196.904,0 c 0.002,-55.729 45.223,-100.951 100.952,-100.954 C -40.225,-100.951 4.997,-55.729 5,0 L 0,0 z"
             style="fill:#231f20;fill-opacity:1;fill-rule:nonzero;stroke:none"
             id="path290" /></g><g
           id="g292"
           transform="translate(108.3066,18.9385)"><path
             d="M 0,0 -0.065,0 C -24.706,0.002 -46.987,9.981 -63.163,26.137 -79.331,42.301 -89.327,64.575 -89.346,89.22 l 0,0.01 0,0.053 c 0,1.202 0.023,2.399 0.071,3.589 l -9.993,0.396 c -0.052,-1.323 -0.078,-2.651 -0.078,-3.985 l 0,-0.08 0,-0.023 0,0.033 C -99.33,61.836 -88.192,37.002 -70.231,19.063 -52.279,1.116 -27.438,-10.002 -0.065,-10 L 0,-10 0,0 z"
             style="fill:#231f20;fill-opacity:1;fill-rule:nonzero;stroke:none"
             id="path294" /></g><g
           id="g296"
           transform="translate(177.1533,132.3857)"><path
             d="m 0,0 -3.5,0 0,-40.38 -8.977,6.371 0,20.863 L 2.025,-2.854 0,0 -3.5,0 0,0 -2.025,2.854 -19.477,-9.531 l 0,-28.093 L 3.5,-53.933 3.5,6.776 -2.025,2.854 0,0 z m -15.977,-35.816 0,3.5 -17.734,0 0,17.478 14.234,0 0,-20.978 3.5,0 0,3.5 0,-3.5 3.5,0 0,27.978 -28.234,0 0,-31.478 28.234,0 0,3.5 -3.5,0 z m -11.488,0 0,-24.178 c -0.001,-1.587 -0.641,-3.015 -1.7,-4.077 -1.063,-1.059 -2.49,-1.7 -4.077,-1.7 l -20.18,0 0,-3.5 3.5,0 c 0.002,5.438 -2.215,10.394 -5.78,13.955 -3.561,3.565 -8.516,5.782 -13.953,5.78 -5.439,0.002 -10.395,-2.214 -13.955,-5.78 -3.566,-3.561 -5.782,-8.517 -5.78,-13.955 l 3.5,0 0,3.5 -20.18,0 c -1.586,0 -3.013,0.641 -4.076,1.7 -1.059,1.062 -1.7,2.491 -1.701,4.077 l 0,10.742 21.314,6.38 -25.985,7.717 26.028,7.73 -26.028,7.731 26.028,7.731 -25.515,7.578 4.158,1.129 0,16.093 c 10e-4,1.587 0.642,3.015 1.7,4.078 1.064,1.058 2.491,1.698 4.077,1.699 l 23.68,0 0,3.5 c 0.002,3.528 1.42,6.69 3.729,9.005 2.316,2.31 5.477,3.728 9.006,3.73 3.526,-10e-4 6.687,-1.42 9.003,-3.73 2.31,-2.316 3.728,-5.477 3.73,-9.005 l 0,-3.5 23.68,0 c 1.587,-0.001 3.014,-0.642 4.077,-1.699 1.059,-1.063 1.699,-2.491 1.7,-4.078 l 0,-24.176 7,0 0,24.176 c 0.001,3.517 -1.445,6.727 -3.75,9.027 -2.3,2.305 -5.511,3.751 -9.027,3.75 l -20.18,0 0,-3.5 3.5,0 c 0.002,5.439 -2.215,10.394 -5.78,13.955 -3.561,3.566 -8.516,5.782 -13.953,5.78 -5.439,0.002 -10.395,-2.214 -13.955,-5.781 -3.566,-3.56 -5.782,-8.516 -5.78,-13.954 l 3.5,0 0,3.5 -20.18,0 c -3.516,10e-4 -6.726,-1.445 -9.026,-3.75 -2.305,-2.3 -3.752,-5.51 -3.751,-9.027 l 0,-10.74 -22.768,-6.178 26.54,-7.882 -26.028,-7.731 26.028,-7.731 -26.029,-7.731 26.071,-7.743 -3.814,-1.142 0,-15.953 c -0.001,-3.517 1.446,-6.727 3.75,-9.027 2.301,-2.305 5.511,-3.751 9.027,-3.75 l 23.68,0 0,3.5 c 0.002,3.528 1.42,6.69 3.729,9.005 2.316,2.31 5.477,3.728 9.006,3.73 3.526,-0.002 6.687,-1.42 9.003,-3.73 2.31,-2.316 3.728,-5.477 3.73,-9.005 l 0,-3.5 23.68,0 c 3.516,-0.001 6.727,1.445 9.027,3.75 2.305,2.3 3.751,5.511 3.75,9.027 l 0,24.178 -7,0 z"
             style="fill:#231f20;fill-opacity:1;fill-rule:nonzero;stroke:none"
             id="path298" /></g></g></g></g></svg>